HIERARCHY
ROOT Hips
{
	OFFSET 0.000000 0.000000 0.000000
	CHANNELS 6 Xposition Yposition Zposition Xrotation Yrotation Zrotation
	JOINT LeftUpLeg_virtual
	{
		OFFSET 0.000000 0.000000 0.000000
		CHANNELS 3 Xrotation Yrotation Zrotation
		JOINT LeftUpLeg
		{
			OFFSET 11.394100 -6.187798 -0.413800
			CHANNELS 3 Xrotation Yrotation Zrotation
			JOINT LeftLeg
			{
				OFFSET 0.430247 -32.302673 3.732800
				CHANNELS 3 Xrotation Yrotation Zrotation
				JOINT LeftFoot
				{
					OFFSET -0.430247 -48.264931 -6.423300
					CHANNELS 3 Xrotation Yrotation Zrotation
					JOINT LeftToeBase
					{
						OFFSET 4.230900 -16.068199 23.438400
						CHANNELS 3 Xrotation Yrotation Zrotation
						JOINT LeftToe_End
						{
							OFFSET 4.510700 0.695400 19.974600
							CHANNELS 3 Xrotation Yrotation Zrotation
							End Site
							{
								OFFSET 0 0 0
							}
						}
					}
				}
			}
		}
	}
	JOINT RightUpLeg_virtual
	{
		OFFSET 0.000000 0.000000 0.000000
		CHANNELS 3 Xrotation Yrotation Zrotation
		JOINT RightUpLeg
		{
			OFFSET -11.333700 -6.187798 -0.413800
			CHANNELS 3 Xrotation Yrotation Zrotation
			JOINT RightLeg
			{
				OFFSET -0.430392 -32.302628 3.733000
				CHANNELS 3 Xrotation Yrotation Zrotation
				JOINT RightFoot
				{
					OFFSET 0.430392 -48.264973 -6.423500
					CHANNELS 3 Xrotation Yrotation Zrotation
					JOINT RightToeBase
					{
						OFFSET -4.230900 -16.068199 23.438400
						CHANNELS 3 Xrotation Yrotation Zrotation
						JOINT RightToe_End
						{
							OFFSET -4.510700 0.695400 19.974600
							CHANNELS 3 Xrotation Yrotation Zrotation
							End Site
							{
								OFFSET 0 0 0
							}
						}
					}
				}
			}
		}
	}
	JOINT Spine_virtual
	{
		OFFSET 0.000000 0.000000 0.000000
		CHANNELS 3 Xrotation Yrotation Zrotation
		JOINT Spine
		{
			OFFSET -0.002400 12.777504 0.315300
			CHANNELS 3 Xrotation Yrotation Zrotation
			JOINT Spine1
			{
				OFFSET -0.002067 5.816869 0.032633
				CHANNELS 3 Xrotation Yrotation Zrotation
				JOINT Spine1_split
				{
					OFFSET -0.002067 5.816869 0.032633
					CHANNELS 3 Xrotation Yrotation Zrotation
					JOINT Spine2
					{
						OFFSET -0.002067 5.816869 0.032633
						CHANNELS 3 Xrotation Yrotation Zrotation
						JOINT Neck_virtual
						{
							OFFSET 0.000000 0.000000 0.000000
							CHANNELS 3 Xrotation Yrotation Zrotation
							JOINT Neck
							{
								OFFSET -0.003700 21.199493 -0.826900
								CHANNELS 3 Xrotation Yrotation Zrotation
								JOINT Head
								{
									OFFSET 0.000000 20.442200 4.834800
									CHANNELS 3 Xrotation Yrotation Zrotation
									JOINT HeadTop_End
									{
										OFFSET 0.000000 34.668396 4.968400
										CHANNELS 3 Xrotation Yrotation Zrotation
										End Site
										{
											OFFSET 0 0 0
										}
									}
								}
							}
						}
						JOINT LeftShoulder_virtual
						{
							OFFSET 0.000000 0.000000 0.000000
							CHANNELS 3 Xrotation Yrotation Zrotation
							JOINT LeftShoulder
							{
								OFFSET 3.288150 8.794197 -1.372250
								CHANNELS 3 Xrotation Yrotation Zrotation
								JOINT LeftShoulder_split
								{
									OFFSET 3.288150 8.794197 -1.372250
									CHANNELS 3 Xrotation Yrotation Zrotation
									JOINT LeftArm
									{
										OFFSET 11.953299 -2.279007 -0.146200
										CHANNELS 3 Xrotation Yrotation Zrotation
										JOINT LeftForeArm
										{
											OFFSET 18.448900 0.000000 0.000000
											CHANNELS 3 Xrotation Yrotation Zrotation
											JOINT LeftHand
											{
												OFFSET 29.527798 0.000000 0.000000
												CHANNELS 3 Xrotation Yrotation Zrotation
												End Site
												{
													OFFSET 0 0 0
												}
											}
										}
									}
								}
							}
						}
						JOINT RightShoulder_virtual
						{
							OFFSET 0.000000 0.000000 0.000000
							CHANNELS 3 Xrotation Yrotation Zrotation
							JOINT RightShoulder
							{
								OFFSET -3.249400 8.794197 -1.372250
								CHANNELS 3 Xrotation Yrotation Zrotation
								JOINT RightShoulder_split
								{
									OFFSET -3.249400 8.794197 -1.372250
									CHANNELS 3 Xrotation Yrotation Zrotation
									JOINT RightArm
									{
										OFFSET -11.953299 -2.279007 -0.146200
										CHANNELS 3 Xrotation Yrotation Zrotation
										JOINT RightForeArm
										{
											OFFSET -18.448900 0.000000 0.000000
											CHANNELS 3 Xrotation Yrotation Zrotation
											JOINT RightHand
											{
												OFFSET -29.527802 0.000000 0.000000
												CHANNELS 3 Xrotation Yrotation Zrotation
												End Site
												{
													OFFSET 0 0 0
												}
											}
										}
									}
								}
							}
						}
					}
				}
			}
		}
	}
}
MOTION
Frames: 5
Frame Time: 0.03333333
-0.081207 101.120201 0.185158 0.000000 0.000000 0.000000 -4.120276 -1.678091 0.514993 -5.841668 8.044564 5.582402 14.673891 9.626180 1.404678 -3.638864 4.703430 -6.851008 0.998366 -0.000005 -0.000004 0.000000 0.000000 0.000000 -4.120276 -1.678091 0.514993 -4.100454 -9.104275 -7.576923 15.914529 -9.493814 1.193031 -6.373800 -4.572700 5.453556 -1.455179 -0.000002 -0.000001 0.000000 0.000000 0.000000 -4.120276 -1.678091 0.514993 3.459206 1.705461 -2.371639 0.710881 0.526839 -0.263052 0.000000 0.000000 0.000000 0.000000 0.000000 0.000000 0.710199 0.523097 -0.267070 2.609733 -0.754816 0.156820 18.950505 -7.303244 0.624141 0.000000 0.000000 0.000000 0.710199 0.523097 -0.267070 2.730607 -4.471829 -12.384156 0.000000 0.000000 0.000000 -6.603770 -10.273114 -60.669148 -0.000005 -16.775182 -0.000018 0.000000 0.000000 0.000000 0.710199 0.523097 -0.267070 1.996586 1.476376 14.937834 0.000000 0.000000 0.000000 -2.025623 7.814283 63.299953 -0.000001 12.108133 0.000021 0.000000 0.000000 0.000000 
-0.314414 100.965775 -0.325508 0.000000 0.000000 0.000000 -4.505187 -0.965962 0.697966 -6.578978 7.898672 5.675369 15.803504 9.623687 1.403585 -4.050097 4.007105 -6.901571 1.061974 0.000002 -0.000000 0.000000 0.000000 0.000000 -4.505187 -0.965962 0.697966 -4.622786 -8.864214 -7.428703 17.114726 -9.558941 0.913810 -6.671077 -5.444491 5.395823 -1.463800 0.000008 0.000001 0.000000 0.000000 0.000000 -4.505187 -0.965962 0.697966 3.853477 2.097979 -2.263841 0.779252 0.636650 -0.214313 0.000000 0.000000 0.000000 0.000000 0.000000 0.000000 0.779023 0.632011 -0.219523 2.504434 -0.875463 0.156875 18.776653 -8.477598 0.864275 0.000000 0.000000 0.000000 0.779023 0.632011 -0.219523 2.725929 -4.533559 -12.333780 0.000000 0.000000 0.000000 -6.245859 -8.768371 -60.756589 0.000004 -15.406544 0.000011 0.000000 0.000000 0.000000 0.779023 0.632011 -0.219523 1.997979 1.881701 14.910769 0.000000 0.000000 0.000000 -3.306486 8.365061 62.900769 0.000007 13.174785 -0.000029 0.000000 0.000000 0.000000 
-0.511768 100.860916 -0.787785 0.000000 0.000000 0.000000 -4.918610 -0.290453 0.832429 -7.066903 7.760486 5.746323 16.623234 9.620843 1.434502 -4.357406 3.329051 -6.942212 1.057855 0.000010 -0.000001 0.000000 0.000000 0.000000 -4.918610 -0.290453 0.832429 -4.848146 -8.818016 -7.358357 17.910867 -9.591144 0.817267 -6.832628 -6.121743 5.284689 -1.472419 -0.000000 0.000002 0.000000 0.000000 0.000000 -4.918610 -0.290453 0.832429 4.215571 2.444043 -2.101955 0.853396 0.731220 -0.162389 0.000000 0.000000 0.000000 0.000000 0.000000 0.000000 0.853783 0.725643 -0.168855 2.408680 -0.981839 0.156932 18.564654 -9.531851 1.114007 0.000000 0.000000 0.000000 0.853783 0.725643 -0.168855 2.733644 -4.642483 -12.331561 0.000000 0.000000 0.000000 -5.812745 -7.144131 -60.813641 0.000002 -13.796086 -0.000010 0.000000 0.000000 0.000000 0.853783 0.725643 -0.168855 2.006186 2.285587 14.907446 0.000000 0.000000 0.000000 -4.196579 9.036012 62.436535 0.000004 14.723542 -0.000009 0.000000 0.000000 0.000000 
-0.692088 100.786705 -1.194870 0.000000 0.000000 0.000000 -5.283196 0.500426 0.978737 -7.476170 7.632863 5.797363 17.250701 9.618332 1.446307 -4.609598 2.588982 -6.955723 1.053743 0.000000 0.000001 0.000000 0.000000 0.000000 -5.283196 0.500426 0.978737 -4.936403 -8.842014 -7.305371 18.485680 -9.614848 0.765720 -6.950318 -6.856823 5.168466 -1.481038 0.000011 0.000000 0.000000 0.000000 0.000000 -5.283196 0.500426 0.978737 4.458650 2.665034 -1.968810 0.923716 0.790730 -0.117401 0.000000 0.000000 0.000000 0.000000 0.000000 0.000000 0.924696 0.784239 -0.124910 2.332533 -1.065886 0.161657 18.398161 -10.383287 1.385004 0.000000 0.000000 0.000000 0.924696 0.784239 -0.124910 2.737250 -4.718404 -12.320235 0.000000 0.000000 0.000000 -5.287585 -5.423517 -60.921025 0.000001 -12.198450 0.000007 0.000000 0.000000 0.000000 0.924696 0.784239 -0.124910 2.023492 2.578336 14.945046 0.000000 0.000000 0.000000 -4.714590 9.925524 61.913158 0.000008 16.716311 0.000010 0.000000 0.000000 0.000000 
-0.863606 100.721870 -1.552410 0.000000 0.000000 0.000000 -5.651340 1.369644 1.155693 -7.821019 7.513554 5.829434 17.809580 9.615255 1.433621 -4.883065 1.760009 -6.958361 1.049622 0.000008 -0.000001 0.000000 0.000000 0.000000 -5.651340 1.369644 1.155693 -4.960675 -8.861563 -7.239306 19.057012 -9.646291 0.684453 -7.206409 -7.652856 5.080864 -1.489658 -0.000007 -0.000000 0.000000 0.000000 0.000000 -5.651340 1.369644 1.155693 4.651706 2.840315 -1.921096 0.992002 0.839698 -0.075051 0.000000 0.000000 0.000000 0.000000 0.000000 0.000000 0.993615 0.832067 -0.083521 2.288248 -1.143351 0.176764 18.313803 -11.182961 1.643887 0.000000 0.000000 0.000000 0.993615 0.832067 -0.083521 2.742450 -4.872849 -12.285451 0.000000 0.000000 0.000000 -4.548080 -3.749253 -61.020008 -0.000000 -10.805860 -0.000006 0.000000 0.000000 0.000000 0.993615 0.832067 -0.083521 2.038431 2.739621 14.984689 0.000000 0.000000 0.000000 -5.032144 10.813842 61.476088 0.000000 18.846135 -0.000004 0.000000 0.000000 0.000000 
